<svg height="600" width="800" xmlns="http://www.w3.org/2000/svg"><g><path fill="#ffffff00" d="M0 0h800v600H0z"/><linearGradient id="c"><stop offset="0%" stop-color="#00000024" stop-opacity="100%"/><stop offset="100%" stop-color="#00000063" stop-opacity="100%"/></linearGradient><filter id="b" y="-20%" height="150%" x="-20%" width="150%"><feDropShadow dx="0" dy="0" stdDeviation="10" flood-color="#63059b73"/></filter><linearGradient id="a"><stop offset="0%" stop-color="#dededea1" stop-opacity="100%"/><stop offset="100%" stop-color="#bdbdbd38" stop-opacity="100%"/></linearGradient><path d="m-127 558 78.08-373.64 62.382 315.564 81.927-357.766 73.61 361.907L227.843 51.04l86.5 415.105 89.714-325.627 70.11 347.467 46.248-505.022 95.016 450.257 72.51-396.635 85.83 412.341 48.648-495.11 65.463 328.286 84.149-348.598" fill="none" stroke-linejoin="bevel" stroke="url(#a)" stroke-width="35" style="transform-origin:center center;transform:scale(1.1,1.1);transition:all .4s cubic-bezier(.16,1,.3,1) 0s"/><path d="m-127 558 78.08-373.64 62.382 315.564 81.927-357.766 73.61 361.907L227.843 51.04l86.5 415.105 89.714-325.627 70.11 347.467 46.248-505.022 95.016 450.257 72.51-396.635 85.83 412.341 48.648-495.11 65.463 328.286 84.149-348.598" fill="none" stroke-linejoin="bevel" filter="url(#b)" stroke="url(#c)" stroke-width="35" style="transform-origin:center center;transition:all .4s cubic-bezier(.16,1,.3,1) 0s"/></g></svg>