<svg width="64" height="64" xmlns="http://www.w3.org/2000/svg"><circle cx="41.5" cy="26.5" r="21.5" style="fill:#e5efef"/><path style="fill:none;stroke:#4c241d;stroke-linecap:round;stroke-linejoin:round;stroke-width:2px" d="m42 7-3 3M44 12h-3M37 8V5M56.951 12l-2.948 2.948M56.951 14.948 54.003 12"/><circle cx="52" cy="57" r="1" style="fill:#4c241d"/><circle cx="19" cy="10" r="1" style="fill:#4c241d"/><path transform="rotate(90 20 35.5)" style="fill:#f4aeab;stroke:#4c241d;stroke-linecap:round;stroke-linejoin:round;stroke-width:2px" d="M.5 26.5h39v18H.5z"/><rect x="10" y="32" width="45" height="7" rx="2.786" ry="2.786" transform="rotate(90 32.5 35.5)" style="fill:#a9ba5a;stroke:#4c241d;stroke-linecap:round;stroke-linejoin:round;stroke-width:2px"/><rect x="-14" y="32" width="45" height="7" rx="2.786" ry="2.786" transform="rotate(90 8.5 35.5)" style="fill:#a9ba5a;stroke:#4c241d;stroke-linecap:round;stroke-linejoin:round;stroke-width:2px"/><circle cx="29" cy="16" r="2" style="fill:#4c241d"/><circle cx="29" cy="29" r="2" style="fill:#4c241d"/><circle cx="11" cy="23" r="2" style="fill:#4c241d"/><circle cx="11" cy="35" r="2" style="fill:#4c241d"/><circle cx="11" cy="47" r="2" style="fill:#4c241d"/><circle cx="29" cy="42" r="2" style="fill:#4c241d"/><circle cx="29.235" cy="53.235" r="2" style="fill:#4c241d"/><path style="fill:none;stroke:#4c241d;stroke-linecap:round;stroke-linejoin:round;stroke-width:2px" d="m29 16-18 7 18 6-18 6 18 7-18 5 18 7"/><path transform="rotate(17.493 48.298 41.816)" style="fill:#ffce56;stroke:#4c241d;stroke-linecap:round;stroke-linejoin:round;stroke-width:2px" d="M46.798 28.815h3v26h-3z"/><rect x="47.908" y="21.601" width="11" height="8" rx="2.233" ry="2.233" transform="rotate(17.493 53.408 25.6)" style="fill:#6b4f5b;stroke:#4c241d;stroke-linecap:round;stroke-linejoin:round;stroke-width:2px"/></svg>